HIERARCHY
ROOT Hips
{
	OFFSET 0.00000 0.00000 0.00000
	CHANNELS 6 Xposition Yposition Zposition Zrotation Yrotation Xrotation 
	JOINT LHipJoint
	{
		OFFSET 0 0 0
		CHANNELS 3 Zrotation Yrotation Xrotation
		JOINT LeftUpLeg
		{
			OFFSET 1.53139 -1.83434 0.76626
			CHANNELS 3 Zrotation Yrotation Xrotation
			JOINT LeftLeg
			{
				OFFSET 2.56112 -7.03663 0.00000
				CHANNELS 3 Zrotation Yrotation Xrotation
				JOINT LeftFoot
				{
					OFFSET 2.59983 -7.14299 0.00000
					CHANNELS 3 Zrotation Yrotation Xrotation
					JOINT LeftToeBase
					{
						OFFSET 0.13742 -0.37757 2.00054
						CHANNELS 3 Zrotation Yrotation Xrotation
						End Site
						{
							OFFSET 0.00000 -0.00000 1.02897
						}
					}
				}
			}
		}
	}
	JOINT RHipJoint
	{
		OFFSET 0 0 0
		CHANNELS 3 Zrotation Yrotation Xrotation
		JOINT RightUpLeg
		{
			OFFSET -1.40122 -1.83435 0.76627
			CHANNELS 3 Zrotation Yrotation Xrotation
			JOINT RightLeg
			{
				OFFSET -2.54052 -6.98003 0.00000
				CHANNELS 3 Zrotation Yrotation Xrotation
				JOINT RightFoot
				{
					OFFSET -2.63179 -7.23079 0.00000
					CHANNELS 3 Zrotation Yrotation Xrotation
					JOINT RightToeBase
					{
						OFFSET -0.24131 -0.66299 2.03908
						CHANNELS 3 Zrotation Yrotation Xrotation
						End Site
						{
							OFFSET -0.00000 -0.00000 1.07391
						}
					}
				}
			}
		}
	}
	JOINT LowerBack
	{
		OFFSET 0 0 0
		CHANNELS 3 Zrotation Yrotation Xrotation
		JOINT Spine
		{
			OFFSET 0.01174 2.10302 -0.29778
			CHANNELS 3 Zrotation Yrotation Xrotation
			JOINT Spine1
			{
				OFFSET 0.00772 2.13227 -0.01247
				CHANNELS 3 Zrotation Yrotation Xrotation
				JOINT Neck
				{
					OFFSET 0 0 0
					CHANNELS 3 Zrotation Yrotation Xrotation
					JOINT Neck1
					{
						OFFSET -0.09219 1.60848 0.31481
						CHANNELS 3 Zrotation Yrotation Xrotation
						JOINT Head
						{
							OFFSET 0.13974 1.65456 -0.31134
							CHANNELS 3 Zrotation Yrotation Xrotation
							End Site
							{
								OFFSET 0.04742 1.69515 -0.14578
							}
						}
					}
				}
				JOINT LeftShoulder
				{
					OFFSET 0 0 0
					CHANNELS 3 Zrotation Yrotation Xrotation
					JOINT LeftArm
					{
						OFFSET 3.24909 1.02882 -0.23993
						CHANNELS 3 Zrotation Yrotation Xrotation
						JOINT LeftForeArm
						{
							OFFSET 5.32955 -0.00000 -0.00000
							CHANNELS 3 Zrotation Yrotation Xrotation
							JOINT LeftHand
							{
								OFFSET 3.69232 -0.00000 -0.00000
								CHANNELS 3 Zrotation Yrotation Xrotation
								JOINT LeftFingerBase
								{
									OFFSET 0 0 0
									CHANNELS 3 Zrotation Yrotation Xrotation
									JOINT LeftHandIndex1
									{
										OFFSET 0.53660 -0.00000 -0.00000
										CHANNELS 3 Zrotation Yrotation Xrotation
										End Site
										{
											OFFSET 0.43262 -0.00000 -0.00000
										}
									}
								}
								JOINT LThumb
								{
									OFFSET 0 0 0
									CHANNELS 3 Zrotation Yrotation Xrotation
									End Site
									{
										OFFSET 0.43922 -0.00000 0.43922
									}
								}
							}
						}
					}
				}
				JOINT RightShoulder
				{
					OFFSET 0 0 0
					CHANNELS 3 Zrotation Yrotation Xrotation
					JOINT RightArm
					{
						OFFSET -3.21387 0.93002 -0.34594
						CHANNELS 3 Zrotation Yrotation Xrotation
						JOINT RightForeArm
						{
							OFFSET -5.23431 -0.00000 0.00000
							CHANNELS 3 Zrotation Yrotation Xrotation
							JOINT RightHand
							{
								OFFSET -3.55301 -0.00000 -0.00000
								CHANNELS 3 Zrotation Yrotation Xrotation
								JOINT RightFingerBase
								{
									OFFSET 0 0 0
									CHANNELS 3 Zrotation Yrotation Xrotation
									JOINT RightHandIndex1
									{
										OFFSET -0.77252 -0.00000 -0.00000
										CHANNELS 3 Zrotation Yrotation Xrotation
										End Site
										{
											OFFSET -0.62283 -0.00000 -0.00000
										}
									}
								}
								JOINT RThumb
								{
									OFFSET 0 0 0
									CHANNELS 3 Zrotation Yrotation Xrotation
									End Site
									{
										OFFSET -0.63234 -0.00000 0.63234
									}
								}
							}
						}
					}
				}
			}
		}
	}
}
MOTION
Frames: 12
Frame Time: 0.0833333
0.00 0.00 0.00 0 0 0 0 0 0 -21 0 0 0 0 0 0 0 0 0 0 0 0 0 0 21 0 0 0 0 0 0 0 0 0 0 0 0 0 0 0 0 0 0 0 0 0 0 -16 0 0 21 0 0 11 0 0 0 -8 0 0 0 0 0 0 0 0 0 0 0 0 0 0 0 0 0 0 0 0 8 0 0 0 0 0 0 0 0 0 0 0 0 0 0 0 0 0
0.00 0.00 0.00 0.1661 -27.0465 1.5128 0.0000 0.0000 0.0000 -19.6797 -7.8205 -13.7145 4.3126 12.5651 37.7616 0.4597 -3.0157 -12.1277 0.4927 -4.5005 -12.4892 0.0000 0.0000 0.0000 26.3392 -1.0696 -6.4569 -2.0461 -8.9614 25.6745 -1.1671 -1.3293 -20.9329 -0.3322 -3.7040 10.2453 0.3303 -0.2295 9.3178 0.9391 -0.2307 0.4570 0.8216 -0.1143 -4.7497 -11.7382 -5.1652 -17.9071 4.9195 -5.3525 27.9008 2.9930 -3.0307 12.7587 0.0000 -0.0000 0.0000 -88.0936 5.4248 20.1706 19.0593 -29.4922 -5.0600 -0.0000 -0.0000 5.2875 16.7185 28.4614 8.1463 -7.1250 0.0000 -0.0000 -15.7900 58.7880 -5.4073 0.0000 -0.0000 0.0000 87.8961 -3.7768 17.5862 -15.6589 25.0560 -3.5003 0.0000 0.0000 7.0302 -14.6375 10.8022 -2.8024 7.1250 -0.0000 -0.0000 8.7691 -18.8950 5.5216
0.00 0.00 0.00 -0.8724 -25.9850 2.6362 0.0000 0.0000 0.0000 -13.8447 -10.6612 -26.1598 0.9575 6.2309 17.4557 0.1935 -0.4542 -8.1576 0.2719 -3.3544 -9.2669 0.0000 0.0000 0.0000 26.6048 -4.0341 3.9369 -0.5963 -4.9437 13.7480 -0.7785 -5.0681 -19.2609 -0.0000 0.0078 -0.0214 1.6947 1.3952 10.9332 0.7322 2.0637 1.7981 -0.4869 0.9925 -4.2166 -11.2274 -5.2055 -17.4319 5.0548 -5.7649 30.3295 2.9386 -3.1864 13.6991 -0.0000 0.0000 0.0000 -88.2982 7.9233 18.7408 17.7365 -27.8184 -4.4256 -0.0000 -0.0000 7.6075 20.2596 24.7955 8.7994 -7.1250 0.0000 -0.0000 -10.0623 55.9136 -2.7138 -0.0000 0.0000 0.0000 87.6907 -0.6443 20.7484 -15.5061 24.8464 -3.4358 0.0000 0.0000 7.6934 -16.4575 9.9172 -2.9125 7.1250 -0.0000 -0.0000 7.4955 -19.6928 4.5703
0.00 0.00 0.00 1.6465 -23.6413 1.6072 0.0000 0.0000 0.0000 -20.4978 -4.9452 -17.9788 0.6956 5.3313 14.8560 -0.0371 -3.4249 1.5007 0.2824 -3.4177 -9.4438 0.0000 0.0000 0.0000 21.0273 -3.5641 8.0817 -2.1949 -9.2608 26.6147 0.0648 -9.3401 -12.0976 -0.1607 2.5829 -7.1196 -0.5558 0.7747 9.5748 -0.0768 0.9586 1.1131 0.1084 0.4791 -4.2189 -11.5367 -5.3067 -16.0412 5.4353 -6.1863 31.1760 3.1062 -3.4036 13.8357 -0.0000 0.0000 0.0000 -89.4046 8.7749 15.3997 14.8894 -23.9918 -3.1808 -0.0000 -0.0000 9.6193 19.9479 25.4433 8.8625 -7.1250 0.0000 -0.0000 -10.6912 56.5045 -3.0398 -0.0000 0.0000 0.0000 88.0139 -5.1759 15.6756 -15.9338 25.4307 -3.6175 0.0000 0.0000 7.3278 -15.4313 11.1632 -3.0591 7.1250 -0.0000 -0.0000 8.2059 -18.4771 5.2362
0.00 0.00 0.00 3.1694 -22.9972 0.4398 0.0000 0.0000 0.0000 -23.5979 -0.7923 -12.8708 0.2900 3.4631 9.5709 -0.1157 -6.0212 2.3692 0.2084 -2.9395 -8.1103 0.0000 0.0000 0.0000 18.2200 -2.8555 0.0496 -5.4175 -13.8391 42.5968 0.3794 -11.9529 0.9885 -0.1879 -2.7919 7.7000 -2.3610 0.6449 9.8898 -0.1811 0.5809 0.9268 1.0617 0.3271 -4.6037 -11.6813 -5.2735 -15.2639 5.7042 -6.3153 31.4557 3.2353 -3.4655 13.8176 0.0000 -0.0000 0.0000 -88.8771 8.7940 19.4722 16.9652 -26.8119 -4.0716 -0.0000 -0.0000 7.5849 20.1553 23.4933 8.3244 -7.1250 0.0000 -0.0000 -9.6063 54.5686 -2.2740 0.0000 -0.0000 0.0000 87.3609 -6.0584 15.8349 -16.0004 25.5213 -3.6462 0.0000 0.0000 8.7625 -15.5684 11.2565 -3.1130 7.1250 -0.0000 -0.0000 8.1087 -18.3725 5.1918
0.00 0.00 0.00 5.6129 -22.2433 -1.8572 0.0000 0.0000 0.0000 -26.9629 3.7610 -4.0947 0.0000 0.0000 0.0000 -0.1380 -6.9663 5.0105 0.1485 -2.4829 -6.8422 0.0000 0.0000 0.0000 14.8317 -0.9418 -9.6733 -9.7743 -17.2810 58.7313 0.3273 -10.6994 -0.0967 -0.5706 -4.8376 13.4460 -5.6078 0.2938 10.8186 -0.6141 -0.3133 1.4301 2.5636 -0.0697 -4.5472 -11.5233 -5.1115 -15.2736 6.1787 -6.2847 31.2698 3.4026 -3.3721 13.7414 -0.0000 0.0000 0.0000 -87.4070 6.6655 22.0770 19.4253 -29.9437 -5.2415 -0.0000 -0.0000 4.7409 21.8508 22.4663 8.7121 -7.1250 0.0000 -0.0000 -7.4684 53.8404 -1.6302 -0.0000 0.0000 0.0000 87.6916 -5.3514 16.3432 -17.1068 26.9983 -4.1357 0.0000 0.0000 5.9321 -15.4611 11.2401 -3.0860 7.1250 -0.0000 -0.0000 8.1842 -18.3964 5.2368
0.00 0.00 0.00 6.1101 -20.2514 -2.3157 0.0000 0.0000 0.0000 -28.0613 2.7337 -5.4465 0.7222 5.4304 15.1404 -0.0022 -11.2081 -7.8280 0.2610 -3.2868 -9.0782 0.0000 0.0000 0.0000 14.2617 3.0453 -25.0220 -9.0971 -16.8698 56.4253 -0.3128 -1.3277 -11.1333 -0.0620 -1.6064 4.4190 -7.1541 -0.9920 11.1687 -0.5524 -2.2363 1.1943 3.7831 -0.9763 -4.7622 -11.7848 -5.3191 -14.3766 6.7081 -6.8411 31.2215 3.5773 -3.6064 13.6220 0.0000 -0.0000 0.0000 -84.3732 -0.2424 22.4180 19.7715 -30.3661 -5.4154 -0.0000 -0.0000 3.2817 22.4244 25.2044 9.9670 -7.1250 0.0000 -0.0000 -7.9566 56.7861 -2.3085 0.0000 -0.0000 0.0000 88.2757 -5.4186 19.9618 -19.9923 30.6331 -5.5274 0.0000 0.0000 4.3116 -14.8898 10.8069 -2.8541 7.1250 -0.0000 -0.0000 8.5914 -18.8750 5.4110
0.00 0.00 0.00 5.2255 -26.9754 -2.4165 0.0000 0.0000 0.0000 -24.7463 5.5279 5.7886 2.4765 9.7951 28.3156 -0.0642 -7.7366 9.5235 1.2340 -7.0447 -19.8479 0.0000 0.0000 0.0000 23.2373 0.3295 -20.8707 -1.8026 -8.4421 24.0653 0.0216 -5.6223 -7.3448 -1.3612 -7.3847 20.8603 -3.8441 -1.3185 8.6250 0.4556 -2.1094 0.7750 2.8819 -0.9834 -3.8750 -12.3316 -6.2426 -15.0459 7.0740 -8.0624 30.0844 3.5622 -4.1351 13.4778 -0.0000 -0.0000 0.0000 -86.8847 4.1606 24.0591 18.8058 -29.1766 -4.9358 -0.0000 -0.0000 6.5197 18.7070 24.6970 8.0528 -7.1250 0.0000 -0.0000 -11.6289 55.4993 -3.0265 -0.0000 -0.0000 0.0000 88.0698 -5.8365 13.8826 -15.2669 24.5165 -3.3359 0.0000 0.0000 7.3968 -13.8628 9.6529 -2.3696 7.1250 -0.0000 -0.0000 9.3458 -20.1058 5.6382
0.00 0.00 0.00 2.7494 -29.8337 -2.1939 0.0000 0.0000 0.0000 -20.2497 3.3359 -1.9701 5.8066 14.2382 44.2004 0.7973 -11.8592 25.0102 0.2061 -2.9233 -8.0652 0.0000 0.0000 0.0000 26.5043 -1.8377 -15.7500 -1.5940 -7.9636 22.6034 -0.1772 -2.2112 -9.0848 -1.0882 -6.6298 18.6232 -1.4367 -1.0128 9.0404 1.1445 -1.4494 0.8101 2.1777 -0.6877 -4.1621 -12.4465 -6.5284 -15.3603 7.2614 -8.4569 29.7606 3.5720 -4.2866 13.4740 -0.0000 0.0000 0.0000 -86.9041 6.9898 25.4223 18.0326 -28.1989 -4.5646 -0.0000 -0.0000 8.5798 18.3324 23.8661 7.6357 -7.1250 0.0000 -0.0000 -11.6315 54.5920 -2.7691 -0.0000 0.0000 0.0000 87.5509 -6.3472 15.9581 -16.0535 25.5931 -3.6690 0.0000 0.0000 6.8139 -12.7026 12.1927 -2.7256 7.1250 -0.0000 -0.0000 10.0904 -17.6054 6.6705
0.00 0.00 0.00 0.8104 -33.8902 -2.1404 0.0000 0.0000 0.0000 -16.6077 0.3290 -9.8445 9.0745 16.8554 56.3473 -0.1846 -10.1726 10.9357 0.9284 -6.1383 -17.1861 0.0000 0.0000 0.0000 28.6384 -2.8434 -9.7371 -1.3493 -7.3536 20.7672 -0.3375 0.4945 -10.8098 -0.7672 -5.5934 15.6091 0.2855 -0.3779 9.4960 1.7092 -0.4095 0.9830 1.6697 -0.2007 -4.2930 -12.6820 -6.5472 -14.7971 7.7812 -8.6513 29.3524 3.7888 -4.3485 13.2453 0.0000 0.0000 0.0000 -87.6044 7.9076 23.6170 17.0285 -26.8954 -4.1002 -0.0000 -0.0000 9.2148 16.5436 24.7320 7.0841 -7.1250 0.0000 -0.0000 -13.8612 55.1056 -3.4889 0.0000 0.0000 0.0000 86.9468 -5.1810 16.9451 -16.9986 26.8560 -4.0867 0.0000 0.0000 6.0632 -13.7125 10.5779 -2.5647 7.1250 -0.0000 -0.0000 9.4253 -19.1763 5.8861
0.00 0.00 0.00 0.8582 -49.4676 -3.2163 0.0000 0.0000 0.0000 -27.3090 -14.6464 -0.1666 1.7726 8.3754 23.8602 -1.9325 -25.4589 -0.3703 0.9003 6.0471 16.9211 0.0000 0.0000 0.0000 10.4107 22.0985 -13.0623 -3.1329 -10.9071 31.9673 0.5444 19.8748 -8.8820 -0.2347 3.1178 -8.6069 -0.2355 0.8253 9.5455 0.4084 1.0706 1.2097 0.4187 0.5281 -4.1063 -7.5479 1.3200 -16.1737 -0.5891 4.1964 36.3334 1.7464 0.4147 15.3567 -0.0000 -0.0000 0.0000 -86.6438 3.0784 35.0603 30.7447 -41.5233 -11.9003 -0.0000 0.0000 -1.2182 21.9676 22.9117 8.9246 -7.1250 0.0000 -0.0000 -7.5117 54.3244 -1.7286 -0.0000 -0.0000 0.0000 85.8749 -7.3155 20.0187 -17.6321 27.6836 -4.3770 0.0000 0.0000 4.1088 -15.7495 7.8399 -2.2030 7.1250 -0.0000 -0.0000 8.0474 -21.8668 4.5148
0.00 0.00 0.00 359.5950 -59.6921 3.9773 0.0000 0.0000 0.0000 -20.6326 5.6764 -18.4649 1.9664 8.7957 25.1582 -0.2322 11.6358 -12.7224 0.0304 -1.1255 -3.0943 0.0000 0.0000 0.0000 24.1997 -10.7912 -7.8913 -2.3548 -9.5689 27.5917 0.6430 -22.2282 -26.5690 -0.0052 0.4664 -1.2817 0.2853 0.2641 8.3208 1.2069 0.3924 1.4121 1.0449 0.1855 -3.2092 -9.2703 -1.6610 -15.8433 3.7900 -1.5195 34.3651 2.8761 -1.5685 14.6266 0.0000 0.0000 0.0000 -86.4764 3.3067 18.1494 18.6411 -28.9703 -4.8558 -0.0000 -0.0000 4.9666 21.1212 24.9512 9.2554 -7.1250 0.0000 -0.0000 -9.2281 56.2506 -2.5615 0.0000 0.0000 0.0000 85.0305 -6.2775 20.3230 -17.0328 26.9010 -4.1022 0.0000 0.0000 5.8197 -18.4137 7.9511 -2.6367 7.1250 -0.0000 -0.0000 6.1130 -21.6239 3.4494
